<svg width="22" height="36" viewBox="0 0 22 36" version="1.1" xmlns="http://www.w3.org/2000/svg" xmlns:xlink="http://www.w3.org/1999/xlink">
<g id="Canvas" fill="none">
<g id="meltdown.min">
<g id="g94">
<g id="ellipse82">
<path d="M 0.555872 1.4817C 0.862872 1.4817 1.11174 1.15001 1.11174 0.740847C 1.11174 0.331689 0.862872 0 0.555872 0C 0.248873 0 0 0.331689 0 0.740847C 0 1.15001 0.248873 1.4817 0.555872 1.4817Z" transform="translate(11.0344 34.5183)" fill="white"/>
</g>
<g id="path84">
<path d="M 21.722 4.71788C 18.2263 3.18449 14.7421 1.62814 11.2693 0.0603014C 11.1089 -0.0201006 10.9198 -0.0201006 10.765 0.0603014C 7.26363 1.61665 3.76794 3.17301 0.27225 4.72362C 0.0946005 4.76956 -0.0200129 4.94185 0.00290961 5.11988C 0.0258322 7.50897 0.00291014 9.89806 0.0258327 12.2814C 0.037294 15.3137 0.948465 18.2656 2.63327 20.7696C 2.63327 20.8213 2.62754 20.8729 2.62754 20.9131C 2.5817 21.4645 2.94846 22.4121 3.40691 22.056C 3.45848 22.0158 3.4986 21.9986 3.53298 21.9871C 3.60175 22.0732 3.67052 22.1536 3.73929 22.234C 3.7794 22.4925 3.74502 22.883 3.75075 23.1012C 3.75648 23.5032 3.81378 24.5427 4.61034 24.1407C 4.82811 24.0316 4.98283 23.8536 5.09745 23.6525C 5.15475 23.7042 5.20633 23.7559 5.26364 23.8019C 5.26937 23.8765 5.28656 23.9512 5.30948 24.0373C 5.45848 24.6001 5.37252 28.6892 5.37252 28.6892C 5.37252 28.6892 5.46994 29.5908 6.07165 29.5908C 6.67337 29.5908 6.71922 28.6892 6.71922 28.6892L 6.71922 25.9383C 6.71922 25.9383 6.84529 25.4329 7.45847 25.5879C 8.07165 25.743 8.07165 26.3632 8.07165 26.3632L 8.07165 32.5427C 8.07165 32.5427 8.14614 33.1802 8.71921 33.1802C 9.2407 33.1802 9.32092 32.4451 9.32092 32.4451L 9.63611 26.4436C 9.91691 26.547 10.2034 26.6447 10.4957 26.7308C 10.6447 26.7767 10.8052 26.8055 10.9599 26.8055L 10.9828 30.0617C 10.9828 30.0617 11.0516 31.5836 11.808 31.5549C 12.553 31.5262 12.5587 29.9584 12.5587 29.9584L 12.5587 27.5578C 12.5587 27.5578 12.702 26.8112 13.149 26.8112C 13.596 26.8112 13.7106 27.4257 13.7106 27.7588C 13.7106 28.0919 13.7679 28.9533 13.7908 29.1658C 13.8137 29.3783 14.0659 29.7918 14.4785 29.7976C 14.8854 29.8033 15.1375 29.1831 15.1375 28.9648C 15.1375 28.7466 15.1834 26.0933 15.1834 26.0933C 15.1834 26.0933 15.1375 25.0883 15.7679 25.0251C 16.5645 24.939 16.3811 25.5133 16.4957 25.6798C 16.6103 25.8464 16.7822 25.8808 16.9828 25.8923C 17.1834 25.9038 17.573 25.6511 17.6132 25.1515C 17.6361 24.8356 17.6934 23.6698 17.7278 22.8658C 18.0487 22.5212 18.3581 22.1536 18.6447 21.7746C 20.8223 19.0294 22.0028 15.6238 21.9914 12.1206L 21.9914 9.02513C 21.9799 7.73869 21.9799 6.44652 21.9971 5.16009C 22.02 4.97057 21.9054 4.78679 21.722 4.71788ZM 20.1003 6.57861L 20.1003 12.3503C 20.1117 14.2455 19.6934 16.1062 18.9083 17.8062C 17.9455 20.1321 16.6447 22.0273 16.2607 22.0388C 16.0716 22.0445 15.9971 22.2111 15.894 22.4637C 15.7794 22.7394 15.6533 23.1242 15.5043 23.2046C 15.2751 23.3309 15.1891 23.3022 14.9312 23.3252C 14.4957 23.3654 14.5874 24.5427 14.4785 24.8586C 14.4441 24.9562 14.3238 25.2319 14.0888 25.2893C 13.9799 25.318 13.8309 25.2721 13.6991 25.163C 13.4527 24.9677 13.5673 24.4221 13.2235 24.1809C 12.6275 23.7559 12.2722 24.5829 12.2722 24.5829L 12.2722 25.4788C 12.2722 25.4788 12.2493 26.1508 11.894 26.0187C 11.5387 25.8923 11.596 25.1285 11.596 25.1285L 11.596 24.4106C 11.5387 24.4279 11.4814 24.4451 11.4183 24.4681C 11.1433 24.5542 10.8453 24.5542 10.5702 24.4681C 10.2493 24.3704 9.9341 24.2613 9.63038 24.135C 9.60173 24.3704 9.55588 24.6576 9.48138 24.715C 9.33812 24.8184 9.10889 24.8586 8.87967 24.7035C 8.66763 24.5599 8.55302 24.0488 8.5301 23.6985C 8.5301 23.6698 8.5301 23.6468 8.52437 23.6238C 6.90833 22.7739 5.49859 21.5506 4.42696 20.0402C 2.79373 17.8579 1.91121 15.2046 1.89402 12.4824C 1.8711 10.5011 1.89402 8.52548 1.89402 6.54415C 1.87683 6.39483 1.96852 6.257 2.11178 6.2168C 5.00003 4.93611 7.894 3.64393 10.788 2.34602C 10.9198 2.2771 11.0745 2.2771 11.2063 2.34602C 14.0945 3.64393 16.9828 4.93037 19.871 6.20531C 20.0315 6.26274 20.1232 6.4178 20.1003 6.57861Z" fill="white"/>
</g>
<g id="path88">
<path d="M 7.86274 0.0430725C 7.75386 -0.0143575 7.62206 -0.0143575 7.50744 0.0430725C 5.06046 1.13424 2.62494 2.21967 0.183689 3.3051C 0.0690765 3.3453 -0.00542161 3.45442 0.000309026 3.57502L 0.000309026 8.58866C 0.00603966 9.13424 0.0461543 9.68557 0.132114 10.2254C 0.218073 10.7595 0.338416 11.2821 0.498874 11.799L 12.1034 1.93826L 7.86274 0.0430725Z" transform="translate(3.32065 4.03159)" fill="white"/>
</g>
<g id="path90">
<path d="M 13.9999 0.603015L 12.6418 -1.75262e-07L 1.74885e-07 10.7279C 0.131805 10.9806 0.26934 11.2333 0.418337 11.4745L 0.418337 12.7782C 0.418337 12.7782 0.3553 13.2548 0.71633 13.3352C 1.07163 13.4157 1.09455 12.9964 1.09455 12.9964L 1.09455 12.4451C 1.28939 12.6978 1.4957 12.9447 1.71346 13.1802L 11.8166 4.61163L 11.8166 4.96195C 11.8166 4.96195 11.7535 5.43862 12.1146 5.51902C 12.4699 5.59943 12.4928 5.18019 12.4928 5.18019L 12.4928 4.03733L 13.0429 3.57215C 13.0888 3.65255 13.1575 3.72146 13.2722 3.74444C 13.6275 3.82484 13.6504 3.4056 13.6504 3.4056L 13.6504 3.04953L 14.1891 2.59009L 14.1891 0.907394C 14.212 0.775305 14.1318 0.643216 13.9999 0.603015Z" transform="translate(4.49573 6.72792)" fill="white"/>
</g>
<g id="path92">
<path d="M 11.2378 0L -3.4977e-07 9.53912C 0.194841 9.69419 0.401145 9.83776 0.607448 9.98133C 0.613178 9.99856 0.624639 10.0215 0.63037 10.0445C 0.710599 10.2627 1.07736 10.7107 1.35243 10.5269C 1.48997 10.435 1.71919 10.7509 1.71919 10.9174C 1.71919 11.084 1.851 11.308 2.13753 11.308C 2.34956 11.308 2.47563 11.1529 2.5444 10.9806C 2.75644 11.061 2.96847 11.1299 3.1805 11.1931C 3.41546 11.2678 3.66188 11.2678 3.89683 11.1931C 4.55013 10.9978 5.1805 10.7337 5.77075 10.4121L 5.77075 11.4056C 5.77075 11.4056 5.91402 11.7846 6.24066 11.7846C 6.52719 11.7846 6.659 11.5434 6.69911 11.3022C 6.73923 11.0668 6.78507 10.0101 6.97419 9.85499C 7.1633 9.69419 7.25499 10.2455 7.85097 10.2513C 8.32088 10.257 8.38965 9.19454 8.79653 8.28141C 8.95125 7.93683 9.68478 6.57574 9.68478 6.57574C 10.6991 4.89304 11.2378 2.9519 11.232 0.964823C 11.2378 0.648958 11.2378 0.321608 11.2378 0Z" transform="translate(7.45273 11.5406)" fill="white"/>
</g>
</g>
</g>
</g>
</svg>

