<svg width="132" height="104" viewBox="0 0 132 104" version="1.1" xmlns="http://www.w3.org/2000/svg" xmlns:xlink="http://www.w3.org/1999/xlink">
<g id="Canvas" fill="none">
<g id="spectre.min">
<g id="Group">
<g id="Vector">
<path d="M 10.4693 0.0808115C 12.3897 -0.199932 14.3885 0.258615 16.0465 1.3348C 17.4742 2.25189 18.6486 3.61349 19.4269 5.19501C 20.1315 6.61745 20.5138 8.21768 20.5506 9.82727C 20.5552 9.91618 20.5691 10.0051 20.5691 10.0893L 20.5691 20.4113C 20.5691 20.5142 20.5644 20.6172 20.5783 20.7201C 20.6013 20.9026 20.5783 21.0851 20.6151 21.2676C 20.6658 21.5155 20.7302 21.7682 20.85 21.9881C 21.1816 22.6526 21.8171 23.1017 22.4895 23.2515C 22.6277 23.2842 22.7889 23.2795 22.8948 23.4012C 23.0606 23.565 23.0422 23.8925 22.8534 24.0282C 22.7613 24.0843 22.706 24.192 22.6323 24.2715C 22.0474 24.978 21.1816 25.3851 20.3111 25.4226C 19.3256 25.4881 18.317 25.081 17.64 24.2996C 17.5294 24.4914 17.4097 24.6786 17.2577 24.847C 17.1103 25.0248 16.9307 25.1605 16.7557 25.2915C 16.6176 25.3617 16.4886 25.4553 16.3412 25.5114C 15.9359 25.6939 15.4846 25.7314 15.0517 25.6846C 14.43 25.6004 13.8543 25.2635 13.4352 24.7628C 12.9654 25.5302 12.1272 26.0168 11.2706 25.9981C 11.0265 26.0121 10.787 25.9466 10.5568 25.8951C 9.9995 25.722 9.50211 25.3383 9.16591 24.833C 8.80668 25.343 8.27244 25.6939 7.69676 25.8343C 7.25003 25.9372 6.77567 25.9232 6.33815 25.7688C 5.98813 25.6518 5.67035 25.4506 5.39863 25.1886C 5.30652 25.1091 5.23744 24.9968 5.14533 24.9125C 4.58346 25.4459 3.84659 25.7641 3.09589 25.8062C 2.24849 25.8671 1.37805 25.591 0.719471 25.0061C 0.521436 24.8377 0.351034 24.6411 0.194448 24.4259C 0.134576 24.3417 0.12076 24.2341 0.0608888 24.1452C -0.054248 23.9674 0.00101784 23.7053 0.166815 23.5884C 0.277346 23.4995 0.424721 23.5182 0.553674 23.4995C 1.04185 23.4293 1.51161 23.2047 1.88466 22.8631C 2.32678 22.456 2.63074 21.8478 2.63535 21.2161C 2.65837 20.6218 2.63995 20.0276 2.64456 19.4334L 2.64456 10.1221C 2.65377 9.99104 2.62153 9.85535 2.62614 9.72433C 2.6768 8.30658 2.98997 6.89819 3.55644 5.61613C 4.18739 4.18434 5.13151 2.91164 6.3013 1.95243C 7.52175 0.951115 8.96327 0.291369 10.4693 0.0808115ZM 11.1324 0.838818C 9.95344 0.913682 8.79286 1.28801 7.76124 1.90564C 6.77567 2.4952 5.90523 3.31404 5.21902 4.27792C 4.14594 5.77054 3.5196 7.62344 3.41828 9.5091C 3.43209 9.89746 3.42288 10.2905 3.42749 10.6789L 3.42749 17.646C 3.42288 18.8438 3.4367 20.0416 3.42288 21.2348C 3.40446 21.7822 3.24788 22.3203 2.96694 22.7789C 2.53863 23.5041 1.82939 24.0095 1.06488 24.2247C 1.30897 24.4633 1.58991 24.6552 1.89847 24.7815C 2.29915 24.9546 2.74127 25.0014 3.16958 24.964C 3.75908 24.9125 4.33016 24.6365 4.75386 24.192C 4.82755 24.1264 4.81834 24.0095 4.88282 23.9346C 4.99795 23.7708 5.23744 23.7287 5.39403 23.8457C 5.49074 23.9112 5.53679 24.0329 5.59667 24.1311C 5.67956 24.2621 5.77167 24.3885 5.87299 24.5008C 6.11248 24.7675 6.43026 24.9406 6.76646 25.0201C 6.94146 25.0623 7.12108 25.0576 7.29609 25.0529C 7.95006 25.0108 8.55798 24.5522 8.81589 23.9019C 8.91721 23.6024 9.33631 23.5229 9.52513 23.7615C 9.60343 23.8551 9.62185 23.9861 9.68172 24.0984C 9.90739 24.571 10.3127 24.9359 10.7824 25.0857C 10.9759 25.1324 11.1739 25.1746 11.3719 25.1605C 12.0167 25.1465 12.6384 24.73 12.924 24.1077C 12.9977 23.9767 13.0161 23.813 13.1082 23.6913C 13.2325 23.5229 13.4904 23.4995 13.6424 23.6352C 13.7207 23.696 13.7484 23.8036 13.8082 23.8785C 13.8727 23.9627 13.9234 24.0563 13.9878 24.1405C 14.3379 24.5944 14.8721 24.8891 15.4247 24.8657C 15.7149 24.8704 16.0142 24.8002 16.2675 24.6411C 16.5347 24.4867 16.7741 24.2621 16.9445 23.9861C 17.0274 23.8551 17.0689 23.7007 17.1426 23.565C 17.1932 23.4854 17.1702 23.3778 17.2163 23.2983C 17.2946 23.1158 17.5018 23.0222 17.6768 23.0924C 17.8196 23.1392 17.8979 23.2842 17.99 23.4059C 18.1466 23.6726 18.3584 23.9019 18.5979 24.089C 19.3854 24.6973 20.4816 24.7768 21.352 24.3277C 21.5546 24.2247 21.7388 24.0797 21.9185 23.9299C 21.4441 23.7474 21.0158 23.448 20.6612 23.0643C 20.3526 22.7181 20.1085 22.2923 19.9842 21.829C 19.8967 21.5483 19.8736 21.2488 19.846 20.9541L 19.846 10.342C 19.846 10.2531 19.8276 10.1642 19.8276 10.0753C 19.823 9.1956 19.7124 8.31594 19.4868 7.46903C 19.0124 5.63952 18.0084 3.9691 16.6406 2.76659C 16.005 2.21914 15.2958 1.75123 14.5359 1.44242C 13.4398 0.965152 12.2792 0.763953 11.1324 0.838818Z" transform="translate(11.7883 0) scale(4)" fill="white"/>
</g>
<g id="Vector_2">
<path d="M 3.09935 4.50635C 2.66183 4.66076 2.17826 4.68415 1.72692 4.55782C 1.19269 4.41277 0.713718 4.0712 0.405152 3.60329C 0.115007 3.17282 -0.0277619 2.64409 0.00447637 2.12471C 0.0321092 1.61002 0.234749 1.10468 0.570949 0.711638C 0.593976 0.683563 0.626214 0.669526 0.658452 0.660168C 1.42757 0.444932 2.19668 0.225016 2.96579 0.00510082C 3.02567 -0.0136154 3.08554 0.0238172 3.14541 0.0425334C 3.69806 0.248412 4.16322 0.674205 4.42112 1.20762C 4.61455 1.60534 4.69745 2.0592 4.6514 2.49903C 4.60074 3.01841 4.37046 3.52375 4.01124 3.90275C 3.76254 4.17881 3.44476 4.38469 3.09935 4.50635Z" transform="translate(59.4872 21.2463) scale(4)" fill="white"/>
</g>
<g id="Vector_3">
<path d="M 2.08633 4.61354C 1.5521 4.55739 1.0455 4.30941 0.667847 3.91637C 0.105979 3.34084 -0.133505 2.46118 0.0737412 1.6751C 0.262565 0.893699 0.875093 0.229274 1.635 1.42793e-07C 2.42253 0.201199 3.20546 0.425793 3.993 0.636351C 4.06668 0.645709 4.10813 0.715895 4.14958 0.767364C 4.37525 1.05279 4.53644 1.385 4.61013 1.74529C 4.72066 2.22723 4.67 2.75128 4.47197 3.20515C 4.27854 3.6637 3.93773 4.05206 3.51403 4.30005C 3.09033 4.5574 2.57912 4.66969 2.08633 4.61354Z" transform="translate(37.5276 21.2854) scale(4)" fill="white"/>
</g>
<g id="Vector_4">
<path d="M -5.62191e-07 5.71173e-07C -5.62191e-07 5.71173e-07 3.59227 1.69382 7.51613 5.71173e-07" stroke-miterlimit="10" stroke-linecap="round" transform="translate(42.6676 48.3116) scale(4)" stroke="white"/>
</g>
<g id="Vector_5">
<path d="M 3.51858 0.272873C 3.51858 0.272873 2.10931 -0.59275 0.879645 0.759496C 0.184219 1.72338 7.02739e-08 2.79956 7.02739e-08 2.79956L 1.08229 2.14917L 1.2619 3.37976L 2.1047 2.67791L 2.58367 3.66518C 2.58367 3.66518 3.0304 2.06963 3.45871 2.18193C 3.89162 2.28954 4.16335 0.843717 3.51858 0.272873Z" stroke-miterlimit="10" stroke-linecap="round" stroke-linejoin="round" transform="translate(4 62.8668) scale(4)" stroke="white"/>
</g>
<g id="Vector_6">
<path d="M 3.13618 1.45167C 3.13618 1.45167 2.40391 -0.143884 1.23873 0.0105251C 0.0689397 0.169613 0.805814 0.913583 0.805814 0.913583C 0.805814 0.913583 -0.336342 1.19432 0.354478 1.87747C 1.0453 2.56061 -0.428453 2.12546 0.128809 2.70566C 0.686071 3.28586 1.01306 3.79588 2.01705 3.65083C 2.01245 3.65551 3.67042 3.26715 3.13618 1.45167Z" stroke-miterlimit="10" stroke-linecap="round" stroke-linejoin="round" transform="translate(97.3259 50.74) scale(4)" stroke="white"/>
</g>
<g id="Vector_7">
<path d="M 5.26002 2.90388C 5.6653 1.83705 6.31468 0.419301 6.31928 0.405264C 6.38376 0.260213 6.32389 0.0917677 6.18112 0.026261C 6.03835 -0.0392458 5.87255 0.0215819 5.80808 0.166632C 5.80347 0.175991 5.4903 0.859132 5.16331 1.63585L 4.68895 0.690686C 4.61986 0.550314 4.44946 0.494166 4.3113 0.564352C 4.17313 0.634538 4.11787 0.807662 4.18695 0.948034L 4.86395 2.2956C 4.86856 2.30496 4.87317 2.31432 4.88238 2.32367C 4.83172 2.45001 4.78106 2.57634 4.735 2.698C 4.44486 3.46068 4.37117 3.94731 4.35735 4.22805L 2.84215 6.00609L 2.63951 4.79421C 2.61188 4.63981 2.4645 4.53219 2.31252 4.56026C 2.16054 4.58834 2.05461 4.73339 2.08225 4.89247L 2.36318 6.56757L 0.0696589 9.26271C 0.0189987 9.32354 -0.00402866 9.3984 0.000576808 9.47794C 0.00978775 9.55749 0.046631 9.62767 0.106502 9.67446L 0.415069 9.92245C 0.47494 9.96924 0.548628 9.99264 0.622315 9.98328C 0.696003 9.97392 0.765084 9.93649 0.811139 9.87566L 4.77645 4.71467L 6.28244 3.95198C 6.4206 3.8818 6.48047 3.70867 6.41139 3.5683C 6.34231 3.42793 6.17191 3.3671 6.03374 3.43729L 4.9883 3.96602L 4.95606 3.94263C 4.99751 3.70399 5.08502 3.36242 5.26002 2.90388Z" transform="translate(106.239 14.4425) scale(4)" fill="white"/>
</g>
<g id="Vector_8">
<path d="M 0.567048 -5.71173e-07L 0.0696578 0.697179C 0.0189976 0.758007 -0.00402979 0.83287 0.000575684 0.912414C 0.00978663 0.991958 0.0466298 1.06214 0.106501 1.10893L 0.415068 1.35692C 0.474939 1.40371 0.548627 1.42711 0.622314 1.41775C 0.696002 1.40839 0.765083 1.37096 0.811138 1.31013L 1.4467 0.486622L 0.912459 0.486622L 0.567048 -5.71173e-07Z" transform="translate(96.4939 62.5546) scale(4)" fill="white"/>
</g>
</g>
</g>
</g>
</svg>

